<svg width="100" height="100" viewBox="0 0 100 100" fill="none" xmlns="http://www.w3.org/2000/svg">
<rect width="100" height="100" fill="#EFF0F7"/>
<path d="M18.6478 49.8712C18.6478 56.2106 20.012 61.8679 22.7403 66.8431C25.5489 71.8183 29.3606 75.7503 34.1753 78.6392C38.99 81.528 44.4467 82.9724 50.5453 82.9724C56.7242 82.9724 62.1809 81.528 66.9153 78.6392C71.7301 75.7503 75.5016 71.8183 78.2299 66.8431C81.0385 61.8679 82.4428 56.2106 82.4428 49.8712C82.4428 43.5319 81.0385 37.8746 78.2299 32.8994C75.5016 27.9242 71.7301 23.9921 66.9153 21.1033C62.1809 18.2145 56.7242 16.7701 50.5453 16.7701C44.4467 16.7701 38.99 18.2145 34.1753 21.1033C29.3606 23.9921 25.5489 27.9242 22.7403 32.8994C20.012 37.8746 18.6478 43.5319 18.6478 49.8712ZM7.81472 49.8712C7.81472 43.6924 8.8579 37.9949 10.9443 32.779C13.1109 27.4828 16.1201 22.9088 19.9719 19.0571C23.8236 15.125 28.3575 12.0757 33.5734 9.9091C38.7894 7.66223 44.4467 6.5388 50.5453 6.5388C56.7242 6.5388 62.3815 7.66223 67.5172 9.9091C72.7331 12.0757 77.267 15.125 81.1188 19.0571C84.9705 22.9088 87.9396 27.4828 90.026 32.779C92.1926 37.9949 93.2759 43.6924 93.2759 49.8712C93.2759 55.9699 92.1926 61.6673 90.026 66.9635C87.9396 72.2597 84.9705 76.8738 81.1188 80.8058C77.267 84.6576 72.7331 87.7069 67.5172 89.9537C62.3815 92.1204 56.7242 93.2037 50.5453 93.2037C44.4467 93.2037 38.7894 92.1204 33.5734 89.9537C28.3575 87.7069 23.8236 84.6576 19.9719 80.8058C16.1201 76.8738 13.1109 72.2597 10.9443 66.9635C8.8579 61.6673 7.81472 55.9699 7.81472 49.8712Z" fill="black"/>
</svg>
