<svg viewBox="0 0 500 60" fill="none"
    xmlns="http://www.w3.org/2000/svg">
    <path d="M478.3 12.82C478.804 12.82 481.073 13.0965 485.107 13.6494L485.985 13.747L486.814 13.8202C487.595 13.9015 488.107 13.991 488.351 14.0886C489.392 14.5115 489.913 15.9834 489.913 18.5044C489.913 20.4399 489.376 21.4077 488.302 21.4077C487.993 21.4077 487.392 20.7571 486.497 19.4559C485.603 18.1547 484.797 17.2846 484.082 16.8454C482.407 15.837 480.227 15.3328 477.543 15.3328C475.998 15.3328 474.526 15.7394 473.128 16.5527C468.931 18.9436 466.833 23.5383 466.833 30.3369C466.833 32.37 467.15 34.3705 467.785 36.3386C468.435 38.2903 469.346 39.8842 470.517 41.1204C471.688 42.3565 472.924 43.2348 474.225 43.7552C475.527 44.2594 477.218 44.5115 479.3 44.5115C481.382 44.5115 482.886 43.9992 483.813 42.9745C484.757 41.9498 485.228 40.0306 485.228 37.2169C485.228 36.1434 484.911 35.2488 484.277 34.5332C484.098 34.3218 483.708 34.0209 483.106 33.6305C482.504 33.2402 482.203 32.9393 482.203 32.7278C482.203 32.0772 483.789 31.7519 486.961 31.7519C490.132 31.7519 491.718 32.1504 491.718 32.9474C491.718 33.1263 491.499 33.5329 491.059 34.1672C490.636 34.7853 490.376 35.3708 490.279 35.9238C490.181 36.4605 490.108 37.412 490.059 38.7783C490.01 40.1282 489.945 41.3237 489.864 42.3646C489.783 43.4055 489.49 44.1618 488.986 44.6335C488.498 45.0889 486.985 45.6907 484.448 46.4389C481.911 47.187 479.601 47.5611 477.519 47.5611C475.437 47.5449 473.372 47.1464 471.322 46.3657C467.175 44.7555 464.304 41.836 462.71 37.6072C461.864 35.3464 461.442 33.0368 461.442 30.6785V29.6538C461.442 29.6213 461.442 29.5806 461.442 29.5318C461.442 27.2873 461.889 25.0591 462.783 22.8471C464.524 18.5207 467.394 15.5931 471.395 14.0642C473.542 13.2347 475.844 12.82 478.3 12.82Z" fill="black"/>
    <path d="M432.043 45.6338C432.043 46.4145 431.238 46.8048 429.628 46.8048H426.334C424.009 46.8048 422.846 46.5446 422.846 46.0241C422.846 45.6338 423.334 45.1458 424.309 44.5603C425.302 43.9748 425.92 43.2022 426.164 42.2426C426.586 40.5511 426.798 36.5256 426.798 30.1661C426.798 23.8067 426.668 20.0089 426.408 18.7728C426.164 17.5367 425.676 16.6015 424.944 15.9672C423.756 14.9262 423.163 14.3895 423.163 14.357C423.163 13.6413 423.756 13.2835 424.944 13.2835C426.863 13.2835 428.302 13.4624 429.262 13.8202C430.222 14.1618 431.1 14.731 431.897 15.528C432.71 16.3087 435.76 20.261 441.046 27.3849C446.348 34.5088 449.105 38.0707 449.316 38.0707C449.837 38.0707 450.097 35.0049 450.097 28.8731L450.146 26.531L450.121 24.1645C450.121 20.5538 449.999 18.3499 449.755 17.5529C449.528 16.756 449.023 16.0891 448.243 15.5524C447.462 15.0157 447.072 14.4627 447.072 13.8934C447.072 13.4217 448.267 13.1859 450.658 13.1859H451.829C454.968 13.1859 456.538 13.4624 456.538 14.0154C456.538 14.5521 456.066 15.1783 455.123 15.894C454.196 16.5933 453.626 17.6505 453.415 19.0656C453.106 21.1637 452.951 24.5549 452.951 29.2391V38.0463C452.951 38.827 452.96 39.6077 452.976 40.3884L453.049 42.7305C453.049 44.3407 452.935 45.3735 452.707 45.8289C452.48 46.2844 452.024 46.5121 451.341 46.5121C450.316 46.5121 448.926 45.4223 447.169 43.2429C446.405 42.2995 443.477 38.2171 438.386 30.9956C433.312 23.7579 430.474 20.139 429.872 20.139C429.547 20.139 429.384 22.5055 429.384 27.2385L429.433 33.2645C429.433 37.656 429.66 40.6893 430.116 42.3646C430.262 42.8851 430.514 43.4137 430.872 43.9504L431.336 44.5603C431.807 45.1621 432.043 45.5199 432.043 45.6338Z" fill="black"/>
    <path d="M415.453 13.1127C416.511 13.1127 417.039 13.373 417.039 13.8934C417.039 14.3 416.6 14.7148 415.722 15.1377C414.86 15.5605 414.299 16.1135 414.038 16.7966C413.778 17.4798 413.648 20.1716 413.648 24.872V25.9699L413.672 27.0677V28.1656L413.648 28.7023C413.632 29.0764 413.624 29.4505 413.624 29.8246L413.575 30.9225L413.55 32.0447V34.2648L413.575 35.9482L413.624 38.1683L413.672 39.2662C413.689 39.6403 413.697 39.9981 413.697 40.3397C413.697 42.1938 413.941 43.4381 414.429 44.0724C414.689 44.4139 415.234 44.7311 416.063 45.0239C416.909 45.3166 417.332 45.6663 417.332 46.0729C417.332 46.756 416.811 47.0976 415.771 47.0976H414.697L414.136 47.0732C413.778 47.0569 413.412 47.0488 413.038 47.0488L411.94 47C411.582 46.9837 411.216 46.9756 410.842 46.9756L408.671 47.0244C405.857 47.0244 404.45 46.7398 404.45 46.1705C404.45 45.7314 404.93 45.2922 405.89 44.8531C406.849 44.4139 407.435 43.9016 407.646 43.3161C408.069 42.145 408.281 39.1849 408.281 34.4356V33.3377L408.256 31.7032C408.256 31.3291 408.256 30.955 408.256 30.5809L408.281 30.0442C408.297 29.6701 408.305 29.296 408.305 28.9219L408.354 27.824C408.37 27.45 408.378 26.897 408.378 26.1651L408.354 25.0672L408.329 24.5061L408.305 22.8471C408.305 19.9032 408.085 17.8701 407.646 16.7479C407.386 16.0973 406.906 15.65 406.207 15.406C404.955 14.9669 404.328 14.544 404.328 14.1374C404.328 13.4868 405.581 13.1615 408.085 13.1615L409.135 13.1859L409.671 13.2103H411.233L414.38 13.1127H415.453Z" fill="black"/>
    <path d="M397.668 18.8216C397.668 20.3993 397.327 21.1881 396.643 21.1881C395.96 21.1881 395.228 20.4887 394.448 19.09C393.683 17.6912 392.74 16.6584 391.618 15.9915C390.512 15.3247 389.08 14.9913 387.324 14.9913C385.567 14.9913 384.144 15.4548 383.054 16.3819C381.965 17.2927 381.42 18.5695 381.42 20.2122C381.42 21.8387 382.168 23.27 383.664 24.5061C384.591 25.2868 386.633 26.3602 389.788 27.7265C392.959 29.0927 395.302 30.5646 396.814 32.1423C398.327 33.7037 399.083 35.7774 399.083 38.3635C399.083 40.9496 398.018 43.064 395.887 44.7067C393.756 46.3494 391.057 47.1708 387.787 47.1708H386.885C385.681 47.1708 384.404 47.0163 383.054 46.7072C381.721 46.3982 380.647 46.1786 379.834 46.0485C379.037 45.9021 378.451 45.7476 378.077 45.585C377.134 45.1458 376.662 43.8609 376.662 41.7303V40.9008C376.662 38.7213 377.158 37.6316 378.151 37.6316C378.59 37.6316 379.175 38.3716 379.907 39.8517C380.655 41.3318 381.363 42.3402 382.03 42.8769C383.705 44.2106 385.64 44.8775 387.836 44.8775C390.048 44.8775 391.707 44.3733 392.813 43.3649C393.935 42.3402 394.496 41.2261 394.496 40.0225C394.496 38.8026 394.326 37.8186 393.984 37.0705C393.643 36.3223 393.025 35.5985 392.13 34.8991C391.235 34.1835 389.227 33.1182 386.104 31.7031C382.981 30.2719 380.818 28.9788 379.614 27.824C377.842 26.1163 376.955 23.9449 376.955 21.3101C376.955 18.6752 377.98 16.5771 380.029 15.0157C382.078 13.4543 384.575 12.6736 387.519 12.6736C388.739 12.6736 390.154 12.8362 391.764 13.1615C393.374 13.4705 394.562 13.625 395.326 13.625C396.107 13.625 396.692 13.8771 397.083 14.3814C397.473 14.8856 397.668 16.3656 397.668 18.8216Z" fill="black"/>
    <path d="M369.709 18.8216C369.709 20.3993 369.368 21.1881 368.685 21.1881C368.001 21.1881 367.27 20.4887 366.489 19.09C365.724 17.6912 364.781 16.6584 363.659 15.9915C362.553 15.3247 361.122 14.9913 359.365 14.9913C357.608 14.9913 356.185 15.4548 355.095 16.3819C354.006 17.2927 353.461 18.5695 353.461 20.2122C353.461 21.8387 354.209 23.27 355.705 24.5061C356.632 25.2868 358.674 26.3602 361.829 27.7265C365.001 29.0927 367.343 30.5646 368.855 32.1423C370.368 33.7037 371.124 35.7774 371.124 38.3635C371.124 40.9496 370.059 43.064 367.928 44.7067C365.798 46.3494 363.098 47.1708 359.828 47.1708H358.926C357.722 47.1708 356.445 47.0163 355.095 46.7072C353.762 46.3982 352.688 46.1786 351.875 46.0485C351.078 45.9021 350.493 45.7476 350.118 45.585C349.175 45.1458 348.703 43.8609 348.703 41.7303V40.9008C348.703 38.7213 349.2 37.6316 350.192 37.6316C350.631 37.6316 351.216 38.3716 351.948 39.8517C352.696 41.3318 353.404 42.3402 354.071 42.8769C355.746 44.2106 357.682 44.8775 359.877 44.8775C362.089 44.8775 363.748 44.3733 364.854 43.3649C365.977 42.3402 366.538 41.2261 366.538 40.0225C366.538 38.8026 366.367 37.8186 366.025 37.0705C365.684 36.3223 365.066 35.5985 364.171 34.8991C363.277 34.1835 361.268 33.1182 358.145 31.7031C355.022 30.2719 352.859 28.9788 351.656 27.824C349.883 26.1163 348.996 23.9449 348.996 21.3101C348.996 18.6752 350.021 16.5771 352.07 15.0157C354.12 13.4543 356.616 12.6736 359.56 12.6736C360.78 12.6736 362.195 12.8362 363.805 13.1615C365.415 13.4705 366.603 13.625 367.367 13.625C368.148 13.625 368.733 13.8771 369.124 14.3814C369.514 14.8856 369.709 16.3656 369.709 18.8216Z" fill="black"/>
    <path d="M317.671 13.991C317.671 13.5356 318.354 13.2347 319.72 13.0883C320.354 13.0233 323.835 12.9907 330.162 12.9907L337.432 12.9663C338.961 12.9663 340.067 13.3404 340.75 14.0886C341.449 14.8205 341.799 16.1054 341.799 17.9433C341.799 18.7403 341.62 19.1387 341.262 19.1387C341.116 19.1387 340.677 18.8053 339.945 18.1385C339.229 17.4716 338.538 17.0487 337.871 16.8698C335.676 16.2518 333.236 15.9428 330.552 15.9428C329.137 15.9428 328.096 16.6747 327.429 18.1385C326.763 19.6023 326.429 21.5784 326.429 24.0669C326.429 25.4819 326.852 26.4822 327.698 27.0677C328.56 27.637 329.82 27.9216 331.479 27.9216C332.097 27.9216 332.87 27.5719 333.797 26.8726C334.724 26.1569 335.375 25.7991 335.749 25.7991C336.123 25.7991 336.489 26.0756 336.847 26.6286C337.221 27.1816 337.408 28.2551 337.408 29.849C337.408 31.4429 337.147 32.5001 336.627 33.0206L336.017 33.3133C335.724 33.3133 334.854 32.7929 333.407 31.7519C332.642 31.1989 331.487 30.9224 329.942 30.9224C328.397 30.9224 327.307 31.4023 326.673 32.3619C326.25 32.9962 326.039 34.6389 326.039 37.29C326.039 39.9249 326.478 41.836 327.356 43.0233C327.893 43.739 329.438 44.0968 331.992 44.0968C334.545 44.0968 336.464 43.8447 337.749 43.3405C339.05 42.8363 340.132 42.1857 340.994 41.3887C341.856 40.5755 342.393 40.1689 342.604 40.1689C342.93 40.1689 343.092 40.4291 343.092 40.9496C343.092 43.8609 342.49 45.707 341.287 46.4877C340.718 46.8618 338.042 47.0488 333.26 47.0488H328.942C323.363 47.0488 320.062 46.9919 319.037 46.878C318.028 46.7642 317.524 46.4877 317.524 46.0485C317.524 45.5931 317.915 45.1052 318.695 44.5847C319.476 44.048 319.972 43.4625 320.184 42.8281C320.574 41.6733 320.769 37.8756 320.769 31.4348L320.867 21.8712C320.867 19.1387 320.769 17.4716 320.574 16.8698C320.379 16.2518 319.842 15.7638 318.964 15.406C318.102 15.0482 317.671 14.5765 317.671 13.991Z" fill="black"/>
    <path d="M291.81 18.8216V27.2385C291.81 28.3608 291.908 29.0602 292.103 29.3367C292.314 29.6131 292.9 29.7514 293.859 29.7514H295.201L295.445 29.727L296.128 29.7026C296.291 29.6863 296.445 29.6782 296.592 29.6782C298.348 29.6782 299.902 29.0602 301.252 27.824C302.602 26.5717 303.276 24.9615 303.276 22.9935V21.9688C303.276 19.952 302.602 18.3336 301.252 17.1138C299.918 15.8777 297.966 15.2596 295.396 15.2596H294.713L294.494 15.284H294.054C293.729 15.3166 293.51 15.3328 293.396 15.3328C292.713 15.3328 292.273 15.5443 292.078 15.9672C291.899 16.3738 291.81 17.3252 291.81 18.8216ZM283.515 14.0642C283.515 13.5112 284.597 13.2347 286.76 13.2347L287.589 13.2103C288.142 13.194 288.646 13.1859 289.102 13.1859C289.574 13.1859 290.183 13.1696 290.932 13.1371L292.615 13.0639C294.307 13.0151 295.437 12.9907 296.006 12.9907C301.91 12.9907 305.708 14.731 307.4 18.2117C307.92 19.2851 308.18 20.627 308.18 22.2372C308.18 24.872 306.928 27.1816 304.423 29.1659C302.927 30.3369 302.179 31.0851 302.179 31.4104C302.179 31.9309 302.488 32.7116 303.106 33.7525C305.936 38.5343 307.741 41.4212 308.522 42.4134C309.319 43.3893 310.246 44.0805 311.303 44.4871C312.36 44.8937 312.889 45.341 312.889 45.8289C312.889 46.0892 312.629 46.3657 312.108 46.6584C311.604 46.9512 310.579 47.0976 309.034 47.0976C307.505 47.0976 306.326 46.6666 305.497 45.8046C305.204 45.4955 304.008 43.495 301.91 39.8029C299.828 36.1109 298.535 34.029 298.031 33.5573C297.137 32.7116 295.762 32.2887 293.908 32.2887C293.241 32.2887 292.761 32.6628 292.469 33.4109C292.176 34.1591 292.03 35.7937 292.03 38.3147C292.03 40.8357 292.152 42.4134 292.395 43.0477C292.656 43.6658 293.176 44.2838 293.957 44.9019C294.754 45.5037 295.152 45.9021 295.152 46.0973C295.152 46.6503 294.42 46.9268 292.957 46.9268L288.053 46.7804C285.011 46.7804 283.491 46.3657 283.491 45.5362C283.491 45.1784 283.962 44.7799 284.906 44.3407C285.865 43.9016 286.467 43.2917 286.711 42.511C286.971 41.714 287.101 39.8598 287.101 36.9485V31.7519L287.077 30.8981C287.061 30.3451 287.053 29.7839 287.053 29.2147L287.004 27.5557C286.987 27.0027 286.979 26.4497 286.979 25.8967L286.833 20.9929C286.833 18.8135 286.67 17.3415 286.345 16.5771C286.15 16.1217 285.629 15.7069 284.784 15.3328C283.938 14.9587 283.515 14.5359 283.515 14.0642Z" fill="black"/>
    <path d="M259.679 15.2352H258.459C256.621 15.2352 255.589 15.6093 255.361 16.3575C255.263 16.6828 255.215 19.0249 255.215 23.3838V30.3613L255.19 31.1908V33.2645L255.166 34.1184V36.1922L255.141 37.8756V40.3396C255.141 42.1775 255.304 43.3649 255.629 43.9016C255.971 44.4221 257.085 44.6823 258.972 44.6823H260.191C265.591 44.666 269.235 42.023 271.121 36.7533C271.739 34.9967 272.048 33.1914 272.048 31.3372V29.5318C272.048 27.6777 271.78 25.791 271.243 23.8717C270.202 20.1634 268.031 17.5936 264.729 16.1623C263.298 15.5443 261.615 15.2352 259.679 15.2352ZM261.509 12.9663C263.656 12.9663 265.762 13.3242 267.828 14.0398C269.893 14.7392 271.658 15.8208 273.122 17.2846C276.212 20.3749 277.757 24.5711 277.757 29.8734C277.757 35.1594 276.041 39.4288 272.61 42.6818C269.454 45.6419 265.29 47.122 260.118 47.122H259.533L258.923 47.0976L256.483 47.0488C256.077 47.0325 255.67 47.0244 255.263 47.0244L253.482 46.9756H251.726C248.44 46.9756 246.798 46.7316 246.798 46.2437C246.798 45.7558 247.31 45.3085 248.335 44.9019C249.359 44.479 249.985 43.8691 250.213 43.0721C250.441 42.2589 250.555 38.2334 250.555 30.9956C250.555 23.7579 250.441 19.521 250.213 18.2849C249.985 17.0325 249.717 16.2843 249.408 16.0403C249.115 15.7964 248.57 15.5524 247.773 15.3084C246.993 15.0645 246.602 14.7717 246.602 14.4301V14.0398C246.602 13.5356 248.131 13.2835 251.189 13.2835L259.606 12.9663H261.509Z" fill="black"/>
    <path d="M221.156 18.8216V27.2385C221.156 28.3608 221.254 29.0602 221.449 29.3367C221.661 29.6131 222.246 29.7514 223.206 29.7514H224.548L224.792 29.727L225.475 29.7026C225.637 29.6863 225.792 29.6782 225.938 29.6782C227.695 29.6782 229.248 29.0602 230.598 27.824C231.948 26.5717 232.623 24.9615 232.623 22.9935V21.9688C232.623 19.952 231.948 18.3336 230.598 17.1138C229.264 15.8777 227.313 15.2596 224.743 15.2596H224.06L223.84 15.284H223.401C223.076 15.3166 222.856 15.3328 222.742 15.3328C222.059 15.3328 221.62 15.5443 221.425 15.9672C221.246 16.3738 221.156 17.3252 221.156 18.8216ZM212.862 14.0642C212.862 13.5112 213.943 13.2347 216.106 13.2347L216.936 13.2103C217.489 13.194 217.993 13.1859 218.448 13.1859C218.92 13.1859 219.53 13.1696 220.278 13.1371L221.962 13.0639C223.653 13.0151 224.784 12.9907 225.353 12.9907C231.257 12.9907 235.055 14.731 236.746 18.2117C237.267 19.2851 237.527 20.627 237.527 22.2372C237.527 24.872 236.274 27.1816 233.77 29.1659C232.273 30.3369 231.525 31.0851 231.525 31.4104C231.525 31.9309 231.834 32.7116 232.452 33.7525C235.282 38.5343 237.088 41.4212 237.868 42.4134C238.665 43.3893 239.592 44.0805 240.65 44.4871C241.707 44.8937 242.235 45.341 242.235 45.8289C242.235 46.0892 241.975 46.3657 241.455 46.6584C240.951 46.9512 239.926 47.0976 238.381 47.0976C236.852 47.0976 235.673 46.6666 234.843 45.8046C234.55 45.4955 233.355 43.495 231.257 39.8029C229.175 36.1109 227.882 34.029 227.378 33.5573C226.483 32.7116 225.109 32.2887 223.255 32.2887C222.588 32.2887 222.108 32.6628 221.815 33.4109C221.522 34.1591 221.376 35.7937 221.376 38.3147C221.376 40.8357 221.498 42.4134 221.742 43.0477C222.002 43.6658 222.523 44.2838 223.303 44.9019C224.1 45.5037 224.499 45.9021 224.499 46.0973C224.499 46.6503 223.767 46.9268 222.303 46.9268L217.399 46.7804C214.358 46.7804 212.837 46.3657 212.837 45.5362C212.837 45.1784 213.309 44.7799 214.252 44.3407C215.212 43.9016 215.814 43.2917 216.058 42.511C216.318 41.714 216.448 39.8598 216.448 36.9485V31.7519L216.423 30.8981C216.407 30.3451 216.399 29.7839 216.399 29.2147L216.35 27.5557C216.334 27.0027 216.326 26.4497 216.326 25.8967L216.18 20.9929C216.18 18.8135 216.017 17.3415 215.692 16.5771C215.496 16.1217 214.976 15.7069 214.13 15.3328C213.284 14.9587 212.862 14.5359 212.862 14.0642Z" fill="black"/>
    <path d="M205.494 13.1127C206.551 13.1127 207.079 13.373 207.079 13.8934C207.079 14.3 206.64 14.7148 205.762 15.1377C204.9 15.5605 204.339 16.1135 204.079 16.7966C203.818 17.4798 203.688 20.1716 203.688 24.872V25.9699L203.713 27.0677V28.1656L203.688 28.7023C203.672 29.0764 203.664 29.4505 203.664 29.8246L203.615 30.9225L203.591 32.0447V34.2648L203.615 35.9482L203.664 38.1683L203.713 39.2662C203.729 39.6403 203.737 39.9981 203.737 40.3397C203.737 42.1938 203.981 43.4381 204.469 44.0724C204.729 44.4139 205.274 44.7311 206.104 45.0239C206.949 45.3166 207.372 45.6663 207.372 46.0729C207.372 46.756 206.852 47.0976 205.811 47.0976H204.737L204.176 47.0732C203.818 47.0569 203.452 47.0488 203.078 47.0488L201.981 47C201.623 46.9837 201.257 46.9756 200.883 46.9756L198.711 47.0244C195.898 47.0244 194.491 46.7398 194.491 46.1705C194.491 45.7314 194.971 45.2922 195.93 44.8531C196.89 44.4139 197.475 43.9016 197.687 43.3161C198.11 42.145 198.321 39.1849 198.321 34.4356V33.3377L198.297 31.7032C198.297 31.3291 198.297 30.955 198.297 30.5809L198.321 30.0442C198.337 29.6701 198.345 29.296 198.345 28.9219L198.394 27.824C198.41 27.45 198.419 26.897 198.419 26.1651L198.394 25.0672L198.37 24.5061L198.345 22.8471C198.345 19.9032 198.126 17.8701 197.687 16.7479C197.426 16.0973 196.947 15.65 196.247 15.406C194.995 14.9669 194.369 14.544 194.369 14.1374C194.369 13.4868 195.621 13.1615 198.126 13.1615L199.175 13.1859L199.712 13.2103H201.273L204.42 13.1127H205.494Z" fill="black"/>
    <path d="M177.559 32.5814V32.2887C177.559 31.2152 176.177 27.2222 173.412 20.3098C173.021 19.3339 172.786 18.846 172.704 18.846C172.639 18.846 171.785 21.0254 170.143 25.3844C168.516 29.7433 167.703 32.1098 167.703 32.4838C167.703 32.7766 168.484 32.923 170.045 32.923H174.241C176.453 32.923 177.559 32.8091 177.559 32.5814ZM157.09 45.707C157.09 45.3817 157.578 44.91 158.554 44.2919C159.546 43.6739 160.311 42.7631 160.847 41.5595C160.864 41.5107 161.417 40.0794 162.506 37.2656C163.596 34.4356 164.791 31.4754 166.093 28.3852C167.41 25.2786 168.272 23.1317 168.679 21.9444C169.085 20.7408 169.541 19.3258 170.045 17.6993C170.549 16.0729 170.907 15.0807 171.118 14.7229C171.769 13.6169 172.647 13.0639 173.753 13.0639C174.127 13.0639 174.518 13.2103 174.924 13.5031C176.144 14.3976 177.559 17.2033 179.169 21.92C179.804 23.7742 181.146 27.4581 183.195 32.9718C185.244 38.4855 186.464 41.6489 186.854 42.4622C187.245 43.2754 187.765 43.8691 188.416 44.2432C189.75 45.0076 190.416 45.5687 190.416 45.9265C190.416 46.5609 189.164 46.878 186.659 46.878H183.78C180.934 46.878 179.511 46.5853 179.511 45.9997C179.511 45.6094 179.779 45.1296 180.316 44.5603C180.853 43.9748 181.121 43.3811 181.121 42.7793C181.121 42.1613 180.796 41.0472 180.145 39.437C179.511 37.8105 179.039 36.7858 178.73 36.363C178.161 35.5823 176.966 35.1919 175.144 35.1919L173.729 35.1431C173.241 35.1268 172.517 35.1187 171.558 35.1187C168.939 35.1187 167.378 35.3383 166.873 35.7774C166.369 36.2003 165.767 37.3144 165.068 39.1198C164.369 40.9089 164.019 42.1288 164.019 42.7793C164.019 43.4299 164.352 44.0724 165.019 44.7067C165.702 45.341 166.044 45.7151 166.044 45.8289C166.044 46.3982 165.247 46.6828 163.653 46.6828C159.278 46.6828 157.09 46.3576 157.09 45.707Z" fill="black"/>
    <path d="M153.821 46.0241C153.821 46.7235 151.999 47.0732 148.356 47.0732C144.713 47.0732 142.891 46.7398 142.891 46.0729C142.891 45.65 143.07 45.2678 143.428 44.9263C144.404 43.9992 144.957 43.3242 145.087 42.9013C145.233 42.4784 145.307 40.5755 145.307 37.1924C145.307 33.8094 144.941 31.8902 144.209 31.4348C143.477 30.9631 141.102 30.7273 137.085 30.7273C133.067 30.7273 130.644 31.02 129.815 31.6056C129.327 31.9471 129.083 33.8907 129.083 37.4364C129.083 40.9821 129.172 42.9826 129.351 43.4381C129.53 43.8935 129.92 44.4383 130.522 45.0726C131.14 45.707 131.449 46.1461 131.449 46.3901C131.449 46.8943 129.912 47.1464 126.838 47.1464L125.667 47.122H124.496C121.568 47.122 120.105 46.7154 120.105 45.9021C120.105 45.5118 120.592 45.0645 121.568 44.5603C122.561 44.0561 123.179 43.4218 123.423 42.6574C123.667 41.8767 123.788 37.8349 123.788 30.5321C123.788 23.2293 123.675 19.0168 123.447 17.8945C123.235 16.756 122.772 15.9834 122.056 15.5768C120.804 14.8449 120.178 14.3732 120.178 14.1618C120.178 13.4949 122.561 13.1615 127.326 13.1615C130.091 13.1615 131.474 13.4543 131.474 14.0398C131.474 14.4627 131.278 14.8286 130.888 15.1377C129.928 15.9184 129.375 16.5608 129.229 17.065C129.083 17.5692 129.009 19.3014 129.009 22.2615C129.009 25.2054 129.351 26.897 130.034 27.3361C130.733 27.7752 133.124 27.9948 137.207 27.9948C141.305 27.9948 143.623 27.7996 144.16 27.4093C144.713 27.0189 144.989 25.7422 144.989 23.579L145.014 22.4323L145.063 21.2857C145.079 20.7815 145.087 20.0008 145.087 18.9436C145.087 17.8701 144.827 16.9918 144.306 16.3087L143.184 15.1864C142.745 14.731 142.525 14.3732 142.525 14.113C142.525 13.5112 145.209 13.2103 150.576 13.2103C152.837 13.2103 153.967 13.5356 153.967 14.1862C153.967 14.6253 153.642 15.0319 152.992 15.406C151.739 16.1379 151.032 16.756 150.869 17.2602C150.706 17.7644 150.625 20.8303 150.625 26.4578L150.454 39.7297C150.454 41.8279 150.706 43.2185 151.211 43.9016C151.422 44.1944 151.91 44.5522 152.674 44.9751C153.439 45.3979 153.821 45.7476 153.821 46.0241Z" fill="black"/>
    <path d="M100.758 18.8216C100.758 20.3993 100.416 21.1881 99.7331 21.1881C99.05 21.1881 98.3181 20.4887 97.5374 19.09C96.773 17.6912 95.8296 16.6584 94.7074 15.9915C93.6014 15.3247 92.1701 14.9913 90.4135 14.9913C88.6569 14.9913 87.2338 15.4548 86.1441 16.3819C85.0543 17.2927 84.5095 18.5695 84.5095 20.2122C84.5095 21.8387 85.2576 23.27 86.754 24.5061C87.6811 25.2868 89.7223 26.3602 92.8776 27.7265C96.0492 29.0927 98.3913 30.5646 99.9039 32.1423C101.417 33.7037 102.173 35.7774 102.173 38.3635C102.173 40.9496 101.107 43.064 98.9768 44.7067C96.8462 46.3494 94.1462 47.1708 90.8771 47.1708H89.9744C88.7708 47.1708 87.494 47.0163 86.1441 46.7072C84.8104 46.3982 83.7369 46.1786 82.9237 46.0485C82.1267 45.9021 81.5412 45.7476 81.1671 45.585C80.2237 45.1458 79.7521 43.8609 79.7521 41.7303V40.9008C79.7521 38.7213 80.2481 37.6316 81.2403 37.6316C81.6794 37.6316 82.265 38.3716 82.9969 39.8517C83.745 41.3318 84.4525 42.3402 85.1194 42.8769C86.7946 44.2106 88.7301 44.8775 90.9258 44.8775C93.1378 44.8775 94.7968 44.3733 95.9028 43.3649C97.0251 42.3402 97.5862 41.2261 97.5862 40.0225C97.5862 38.8026 97.4154 37.8186 97.0739 37.0705C96.7323 36.3223 96.1143 35.5985 95.2197 34.8991C94.3252 34.1835 92.3165 33.1182 89.1937 31.7031C86.0709 30.2719 83.9077 28.9788 82.7041 27.824C80.9313 26.1163 80.0448 23.9449 80.0448 21.3101C80.0448 18.6752 81.0695 16.5771 83.1188 15.0157C85.1682 13.4543 87.6648 12.6736 90.6087 12.6736C91.8285 12.6736 93.2436 12.8362 94.8538 13.1615C96.4639 13.4705 97.6513 13.625 98.4157 13.625C99.1964 13.625 99.7819 13.8771 100.172 14.3814C100.563 14.8856 100.758 16.3656 100.758 18.8216Z" fill="black"/>
    <path d="M56.9898 45.3898H57.8193C60.877 45.3898 63.3005 44.0154 65.0896 41.2667C66.8461 38.5017 67.7244 34.9967 67.7244 30.7517V30.2881C67.7244 25.5877 66.7811 21.8305 64.8944 19.0168C63.0077 16.203 60.4786 14.7961 57.307 14.7961C54.1516 14.7961 51.6306 16.1542 49.7439 18.8704C48.9795 19.9764 48.337 21.4646 47.8166 23.335C47.3124 25.1892 47.0603 27.2223 47.0603 29.4342V29.8734C47.0603 34.2486 47.906 37.8186 49.5975 40.5836C50.4596 42.0149 51.5574 43.1778 52.8911 44.0724C54.2248 44.9507 55.591 45.3898 56.9898 45.3898ZM73.6285 30.1661C73.6285 32.5408 73.2137 34.8666 72.3842 37.1437C70.709 41.714 67.7976 44.8368 63.6502 46.5121C61.6984 47.2928 59.7629 47.6831 57.8437 47.6831H56.7214C52.4438 47.6831 48.8331 46.1136 45.8892 42.9745C44.6694 41.6733 43.6528 39.9168 42.8396 37.7048C42.0264 35.4765 41.6198 33.2808 41.6198 31.1176V29.9466C41.6198 27.5231 42.0345 25.1892 42.864 22.9447C44.4742 18.5858 47.2066 15.5768 51.0614 13.9178C53.1432 13.007 55.4121 12.5516 57.8681 12.5516H58.4292C60.5761 12.5516 62.6336 12.9745 64.6016 13.8202C68.5377 15.4955 71.2538 18.7647 72.7502 23.6278C73.3357 25.5145 73.6285 27.4988 73.6285 29.5806V30.1661Z" fill="black"/>
    <path d="M16.7593 37.0217C16.7593 39.5752 16.8488 41.2993 17.0277 42.1938C17.2066 43.0721 17.5969 43.804 18.1987 44.3895C18.8168 44.9751 19.1258 45.4955 19.1258 45.9509C19.1258 46.6503 16.7837 47 12.0995 47C9.3508 47 7.97644 46.6991 7.97644 46.0973C7.97644 45.707 8.40745 45.219 9.26948 44.6335C10.1478 44.048 10.717 43.1616 10.9773 41.9742C11.2375 40.7869 11.3676 36.8102 11.3676 30.0442C11.3676 23.2781 11.2538 19.3258 11.0261 18.1873C10.8146 17.0325 10.3836 16.203 9.73302 15.6988C8.56197 14.788 7.97644 14.2919 7.97644 14.2106C7.97644 13.3648 9.14749 12.9419 11.4896 12.9419H15.9298C17.9792 12.9419 19.0038 13.3242 19.0038 14.0886C19.0038 14.2187 18.7517 14.6172 18.2475 15.284C17.7596 15.9346 17.418 16.8373 17.2229 17.9921C17.044 19.1306 16.9545 21.8224 16.9545 26.0675C16.9545 27.5313 17.3367 28.2632 18.1012 28.2632C18.2801 28.2632 18.768 27.9623 19.565 27.3605C21.4679 25.913 23.7124 23.5302 26.2985 20.2122C27.7461 18.358 28.4698 16.7804 28.4698 15.4792L28.3235 14.2838C28.3235 13.7958 28.5918 13.4705 29.1285 13.3079C29.6653 13.1452 31.0396 13.0639 33.2516 13.0639C35.4636 13.0639 36.5696 13.3323 36.5696 13.869C36.5696 14.0805 35.3985 15.0726 33.0564 16.8454C31.8854 17.7237 30.1044 19.5128 27.7135 22.2128C25.3389 24.9127 24.1516 26.8563 24.1516 28.0436C24.1516 28.8731 27.0385 32.9311 32.8125 40.2177C34.0323 41.7465 35.0082 42.82 35.7401 43.4381C37.6105 44.9995 38.5457 45.8371 38.5457 45.9509C38.5457 46.6666 37.0901 47.0244 34.1787 47.0244H33.1052C31.6577 47.0244 30.5761 46.6666 29.8605 45.9509C29.6165 45.707 29.2993 45.1296 28.909 44.2188C28.5349 43.2917 27.7786 41.9498 26.6401 40.1933C22.8829 34.4031 20.2969 31.508 18.8819 31.508C17.4668 31.508 16.7593 33.3459 16.7593 37.0217Z" fill="black"/>
</svg>
